<!DOCTYPE svg PUBLIC "-//W3C//DTD SVG 1.1//EN" "http://www.w3.org/Graphics/SVG/1.1/DTD/svg11.dtd">

<!-- Uploaded to: SVG Repo, www.svgrepo.com, Transformed by: SVG Repo Mixer Tools -->
<svg fill="#000000" version="1.1" id="Capa_1" xmlns="http://www.w3.org/2000/svg" xmlns:xlink="http://www.w3.org/1999/xlink" viewBox="-29.8 -29.8 357.60 357.60" xml:space="preserve" width="45px" height="45px" stroke="#000000" stroke-width="0.00298">

<g id="SVGRepo_bgCarrier" stroke-width="0" transform="translate(0,0), scale(1)">

<path transform="translate(-29.8, -29.8), scale(22.350000000000005)" fill="#f23e02" d="M9.166.33a2.25 2.25 0 00-2.332 0l-5.25 3.182A2.25 2.25 0 00.5 5.436v5.128a2.25 2.25 0 001.084 1.924l5.25 3.182a2.25 2.25 0 002.332 0l5.25-3.182a2.25 2.25 0 001.084-1.924V5.436a2.25 2.25 0 00-1.084-1.924L9.166.33z" strokewidth="0"/>

</g>

<g id="SVGRepo_tracerCarrier" stroke-linecap="round" stroke-linejoin="round" stroke="#ff7300" stroke-width="4.768"> <g> <path d="M278.125,33h-0.208H235v67h42.917C288.945,100,298,90.862,298,79.834V52.5C298,41.472,289.153,33,278.125,33z"/> <path d="M20.75,33C9.722,33,0,41.472,0,52.5v27.334C0,90.862,9.722,100,20.75,100H63V33H20.75z"/> <rect x="78" y="33" width="142" height="67"/> <path d="M278.125,198h-0.208H235v67h42.917c11.028,0,20.083-9.138,20.083-20.166V217.5C298,206.472,289.153,198,278.125,198z"/> <rect x="78" y="198" width="142" height="67"/> <path d="M20.75,198C9.722,198,0,206.472,0,217.5v27.334C0,255.862,9.722,265,20.75,265H63v-67H20.75z"/> <path d="M20.75,116C9.722,116,0,123.972,0,135v27.334C0,173.362,9.722,183,20.75,183H141v-67H20.75z"/> <path d="M278.125,116h-0.208H156v67h121.917c11.028,0,20.083-9.638,20.083-20.666V135C298,123.972,289.153,116,278.125,116z"/> </g> </g>

<g id="SVGRepo_iconCarrier"> <g> <path d="M278.125,33h-0.208H235v67h42.917C288.945,100,298,90.862,298,79.834V52.5C298,41.472,289.153,33,278.125,33z"/> <path d="M20.75,33C9.722,33,0,41.472,0,52.5v27.334C0,90.862,9.722,100,20.75,100H63V33H20.75z"/> <rect x="78" y="33" width="142" height="67"/> <path d="M278.125,198h-0.208H235v67h42.917c11.028,0,20.083-9.138,20.083-20.166V217.5C298,206.472,289.153,198,278.125,198z"/> <rect x="78" y="198" width="142" height="67"/> <path d="M20.75,198C9.722,198,0,206.472,0,217.5v27.334C0,255.862,9.722,265,20.75,265H63v-67H20.75z"/> <path d="M20.75,116C9.722,116,0,123.972,0,135v27.334C0,173.362,9.722,183,20.75,183H141v-67H20.75z"/> <path d="M278.125,116h-0.208H156v67h121.917c11.028,0,20.083-9.638,20.083-20.666V135C298,123.972,289.153,116,278.125,116z"/> </g> </g>

</svg>