<!DOCTYPE svg PUBLIC "-//W3C//DTD SVG 1.1//EN" "http://www.w3.org/Graphics/SVG/1.1/DTD/svg11.dtd">

<!-- Uploaded to: SVG Repo, www.svgrepo.com, Transformed by: SVG Repo Mixer Tools -->
<svg fill="#000000" version="1.1" id="Capa_1" xmlns="http://www.w3.org/2000/svg" xmlns:xlink="http://www.w3.org/1999/xlink" width="45px" height="45px" viewBox="-34.84 -34.84 567.34 567.34" xml:space="preserve">

<g id="SVGRepo_bgCarrier" stroke-width="0">

<path transform="translate(-34.84, -34.84), scale(35.45875)" fill="#f23e02" d="M9.166.33a2.25 2.25 0 00-2.332 0l-5.25 3.182A2.25 2.25 0 00.5 5.436v5.128a2.25 2.25 0 001.084 1.924l5.25 3.182a2.25 2.25 0 002.332 0l5.25-3.182a2.25 2.25 0 001.084-1.924V5.436a2.25 2.25 0 00-1.084-1.924L9.166.33z" strokewidth="0"/>

</g>

<g id="SVGRepo_tracerCarrier" stroke-linecap="round" stroke-linejoin="round"/>

<g id="SVGRepo_iconCarrier"> <g> <g> <polygon points="302.108,497.658 329.294,497.658 329.294,329.293 497.658,329.293 497.658,302.107 302.108,302.107 "/> <polygon points="0,329.293 168.364,329.293 168.364,497.658 195.55,497.658 195.55,302.107 0,302.107 "/> <polygon points="168.364,168.365 0,168.365 0,195.55 195.55,195.55 195.55,0 168.364,0 "/> <polygon points="329.294,168.365 329.294,0 302.108,0 302.108,195.55 497.658,195.55 497.658,168.365 "/> <rect x="2.626" y="237.411" width="48.934" height="22.836"/> <rect x="80.478" y="237.411" width="92.954" height="22.836"/> <rect x="324.226" y="237.411" width="92.953" height="22.836"/> <rect x="446.099" y="237.411" width="48.935" height="22.836"/> <rect x="237.411" y="2.626" width="22.836" height="48.933"/> <polygon points="260.247,202.351 237.411,202.351 237.411,237.411 202.352,237.411 202.352,260.247 237.411,260.247 237.411,295.307 260.247,295.307 260.247,260.247 295.307,260.247 295.307,237.411 260.247,237.411 "/> <rect x="237.411" y="80.478" width="22.836" height="92.954"/> <rect x="237.411" y="324.225" width="22.836" height="92.954"/> <rect x="237.411" y="446.099" width="22.836" height="48.934"/> </g> </g> </g>

</svg>