<!DOCTYPE svg PUBLIC "-//W3C//DTD SVG 1.1//EN" "http://www.w3.org/Graphics/SVG/1.1/DTD/svg11.dtd">

<!-- Uploaded to: SVG Repo, www.svgrepo.com, Transformed by: SVG Repo Mixer Tools -->
<svg width="45px" height="45px" viewBox="-4.8 -4.8 57.60 57.60" fill="none" xmlns="http://www.w3.org/2000/svg">

<g id="SVGRepo_bgCarrier" stroke-width="0">

<path transform="translate(-4.8, -4.8), scale(3.5999999999999996)" fill="#f23e02" d="M9.166.33a2.25 2.25 0 00-2.332 0l-5.25 3.182A2.25 2.25 0 00.5 5.436v5.128a2.25 2.25 0 001.084 1.924l5.25 3.182a2.25 2.25 0 002.332 0l5.25-3.182a2.25 2.25 0 001.084-1.924V5.436a2.25 2.25 0 00-1.084-1.924L9.166.33z" strokewidth="0"/>

</g>

<g id="SVGRepo_tracerCarrier" stroke-linecap="round" stroke-linejoin="round"/>

<g id="SVGRepo_iconCarrier"> <path d="M8 13C8 13 14 23 24 23C34 23 40 13 40 13" stroke="#000000" stroke-width="4"/> <path d="M8 10V38" stroke="#000000" stroke-width="4" stroke-linecap="round" stroke-linejoin="round"/> <path d="M40 10V38" stroke="#000000" stroke-width="4" stroke-linecap="round" stroke-linejoin="round"/> <path d="M4 30.5C4 30.5 16.1877 29.9026 24 30C31.8196 30.0975 44 31 44 31" stroke="#000000" stroke-width="4" stroke-linecap="round"/> <path d="M16 21V30" stroke="#000000" stroke-width="4" stroke-linecap="round"/> <path d="M24 23L24 30" stroke="#000000" stroke-width="4" stroke-linecap="round"/> <path d="M32 21L32 30" stroke="#000000" stroke-width="4" stroke-linecap="round"/> <path d="M8 13L4 18" stroke="#000000" stroke-width="4" stroke-linecap="round"/> <path d="M44 18L40 13" stroke="#000000" stroke-width="4" stroke-linecap="round"/> </g>

</svg>