<!DOCTYPE svg PUBLIC "-//W3C//DTD SVG 1.1//EN" "http://www.w3.org/Graphics/SVG/1.1/DTD/svg11.dtd">

<!-- Uploaded to: SVG Repo, www.svgrepo.com, Transformed by: SVG Repo Mixer Tools -->
<svg fill="#000000" height="45px" width="45px" version="1.1" id="Capa_1" xmlns="http://www.w3.org/2000/svg" xmlns:xlink="http://www.w3.org/1999/xlink" viewBox="-79 -79 553.00 553.00" xml:space="preserve" stroke="#000000" stroke-width="0.00395">

<g id="SVGRepo_bgCarrier" stroke-width="0" transform="translate(0,0), scale(1)">

<path transform="translate(-79, -79), scale(34.5625)" fill="#f23e02" d="M9.166.33a2.25 2.25 0 00-2.332 0l-5.25 3.182A2.25 2.25 0 00.5 5.436v5.128a2.25 2.25 0 001.084 1.924l5.25 3.182a2.25 2.25 0 002.332 0l5.25-3.182a2.25 2.25 0 001.084-1.924V5.436a2.25 2.25 0 00-1.084-1.924L9.166.33z" strokewidth="0"/>

</g>

<g id="SVGRepo_tracerCarrier" stroke-linecap="round" stroke-linejoin="round" stroke="#CCCCCC" stroke-width="0.79"/>

<g id="SVGRepo_iconCarrier"> <g> <path d="M313.002,0H82C36.785,0,0,36.784,0,81.998v230.993C0,358.211,36.785,395,82,395h231.002 C358.216,395,395,358.211,395,312.991V81.998C395,36.784,358.216,0,313.002,0z M380,312.991C380,349.94,349.944,380,313.002,380H82 c-36.944,0-67-30.06-67-67.009V81.998C15,45.056,45.056,15,82,15h231.002C349.944,15,380,45.056,380,81.998V312.991z"/> <path d="M206.403,33.004h-17.807c-54.331,0-98.532,44.201-98.532,98.532v160.951h18.992V131.536c0-43.858,35.682-79.54,79.54-79.54 h17.807c43.858,0,79.54,35.682,79.54,79.54v160.951h18.992V131.536C304.935,77.205,260.734,33.004,206.403,33.004z"/> <path d="M200.833,96.086h-6.666c-18.414,0-33.337,14.925-33.337,33.335v80.613h73.34v-80.613 C234.17,111.011,219.249,96.086,200.833,96.086z"/> <path d="M190.82,217.914c-1.126,11.393-2.259,22.784-3.388,34.177h20.134c-1.128-11.393-2.262-22.784-3.386-34.177 C198.836,217.914,196.166,217.914,190.82,217.914z"/> <path d="M181.096,315.953c-1.21,12.183-2.415,24.364-3.624,36.547c13.349,0,26.709,0,40.057,0 c-1.209-12.183-2.414-24.364-3.624-36.547H181.096z"/> <path d="M182.223,304.619h30.555c-1.363-13.731-2.721-27.463-4.086-41.194h-22.383 C184.943,277.156,183.585,290.888,182.223,304.619z"/> </g> </g>

</svg>